<svg xmlns="http://www.w3.org/2000/svg" width="65.972" height="67.238" viewBox="0 0 65.972 67.238">
  <g id="noun_logout_1997053" transform="translate(146.472 139.638) rotate(180)">
    <g id="Group_26" data-name="Group 26" transform="translate(80.5 72.4)">
      <g id="Group_21" data-name="Group 21" transform="translate(0 0)">
        <g id="Group_20" data-name="Group 20">
          <path id="Path_2" data-name="Path 2" d="M117.084,118.9v13.692a18.043,18.043,0,0,1-.023,2.132c.038-.267.076-.542.107-.81a2.646,2.646,0,0,1-.138.5c.1-.244.206-.489.306-.734a2.788,2.788,0,0,1-.306.527l.481-.619a2.473,2.473,0,0,1-.428.42l.619-.481a2.48,2.48,0,0,1-.436.252c.245-.1.489-.206.734-.306a2.737,2.737,0,0,1-.489.138c.267-.038.542-.076.81-.107a9.064,9.064,0,0,1-1.116.023H89.57c-1.284,0-2.567.023-3.851,0a2.716,2.716,0,0,1-.351-.023c.267.038.542.076.81.107a2.739,2.739,0,0,1-.489-.138c.245.1.489.206.734.306a2.481,2.481,0,0,1-.436-.252l.619.481a2.23,2.23,0,0,1-.428-.42l.481.619a2.788,2.788,0,0,1-.306-.527c.1.245.206.489.306.734a2.816,2.816,0,0,1-.138-.5c.038.267.076.542.107.81a15.227,15.227,0,0,1-.023-1.773V79.8c0-.726-.008-1.444,0-2.17a3.332,3.332,0,0,1,.023-.39c-.038.267-.076.542-.107.81a2.737,2.737,0,0,1,.138-.489c-.1.245-.206.489-.306.734a2.668,2.668,0,0,1,.306-.512l-.481.619a2.492,2.492,0,0,1,.351-.344l-.619.481a2.482,2.482,0,0,1,.52-.3c-.244.1-.489.206-.734.306a2.715,2.715,0,0,1,.489-.13c-.267.038-.542.076-.81.107A9.031,9.031,0,0,1,86.49,78.5h27.636c1.284,0,2.567-.023,3.851,0a2.715,2.715,0,0,1,.351.023c-.267-.038-.542-.076-.81-.107a2.715,2.715,0,0,1,.489.13c-.245-.1-.489-.206-.734-.306a2.533,2.533,0,0,1,.52.3l-.619-.481a2.492,2.492,0,0,1,.351.344l-.481-.619a2.454,2.454,0,0,1,.306.512c-.1-.244-.206-.489-.306-.734a2.737,2.737,0,0,1,.138.489c-.038-.267-.076-.542-.107-.81A14.966,14.966,0,0,1,117.1,79V93.137a3.056,3.056,0,1,0,6.113,0V79.9c0-.848.053-1.719-.008-2.56a5.21,5.21,0,0,0-1.62-3.538,5.43,5.43,0,0,0-3.561-1.406H85.772A5.176,5.176,0,0,0,80.5,77.611v56.747a5.37,5.37,0,0,0,1.559,3.774,5.3,5.3,0,0,0,3.729,1.505h32.244a5.315,5.315,0,0,0,5.2-5.234c.015-.825,0-1.643,0-2.468v-13.05a3.09,3.09,0,0,0-3.056-3.056,3.141,3.141,0,0,0-3.087,3.072Z" transform="translate(-80.5 -72.4)" fill="#414141"/>
        </g>
      </g>
      <g id="Group_23" data-name="Group 23" transform="translate(15.225 30.56)">
        <g id="Group_22" data-name="Group 22">
          <path id="Path_3" data-name="Path 3" d="M282.823,478.489h39.136c1.8,0,3.614.023,5.417,0h.076a3.056,3.056,0,0,0,0-6.113H288.317c-1.8,0-3.614-.023-5.417,0h-.076a3.056,3.056,0,0,0,0,6.113Z" transform="translate(-279.764 -472.367)" fill="#414141"/>
        </g>
      </g>
      <g id="Group_25" data-name="Group 25" transform="translate(48.93 19.574)">
        <g id="Group_24" data-name="Group 24">
          <path id="Path_4" data-name="Path 4" d="M721.764,333.788l3.69,3.69,5.883,5.883,1.36,1.36V340.4l-3.69,3.69-5.883,5.883-1.36,1.36a3.058,3.058,0,0,0,4.325,4.325l3.69-3.69,5.883-5.883,1.36-1.36a3.1,3.1,0,0,0,0-4.325l-3.69-3.69-5.883-5.883-1.36-1.36a3.058,3.058,0,0,0-4.325,4.325Z" transform="translate(-720.884 -328.584)" fill="#414141"/>
        </g>
      </g>
    </g>
  </g>
</svg>
