<svg xmlns="http://www.w3.org/2000/svg" width="69.76" height="69.238" viewBox="0 0 69.76 69.238">
  <g id="noun_Home_647693" transform="translate(-20.772 -21)">
    <g id="Group_27" data-name="Group 27" transform="translate(21.835 22)">
      <path id="Path_15" data-name="Path 15" d="M55.651,25.6,85.867,55.818H74.815V85.636H61.906V66.971H49.3V85.636H36.392V55.818H25.437L55.651,25.6m0-3.6h0A3.6,3.6,0,0,0,53.1,23.055L22.89,53.272a3.6,3.6,0,0,0,2.547,6.15H32.79V85.636a3.6,3.6,0,0,0,3.6,3.6H49.3a3.6,3.6,0,0,0,3.6-3.6V70.573h5.4V85.636a3.6,3.6,0,0,0,3.6,3.6H74.815a3.6,3.6,0,0,0,3.6-3.6V59.42h7.45a3.6,3.6,0,0,0,2.547-6.15L58.2,23.055A3.6,3.6,0,0,0,55.651,22Z" transform="translate(-21.835 -22)" stroke="#9f9f9f" stroke-width="2"/>
    </g>
  </g>
</svg>
