<svg xmlns="http://www.w3.org/2000/svg" width="217.743" height="236.514" viewBox="0 0 217.743 236.514">
  <g id="noun_Cashier_1108865" transform="translate(-21 -18)">
    <path id="Path_5" data-name="Path 5" d="M219.972,70.559H197.447V59.3h26.279a3.754,3.754,0,0,0,3.754-3.754V21.754A3.754,3.754,0,0,0,223.726,18H148.642a3.754,3.754,0,0,0-3.754,3.754V55.542a3.754,3.754,0,0,0,3.754,3.754h26.279V70.559H107.346A18.793,18.793,0,0,0,88.575,89.33v97.609H81.067V134.38a3.754,3.754,0,0,0-3.754-3.754h-41.3a3.754,3.754,0,0,0-3.754,3.754v52.559H24.754A3.754,3.754,0,0,0,21,190.693V250.76a3.754,3.754,0,0,0,3.754,3.754H234.989a3.754,3.754,0,0,0,3.754-3.754V89.33A18.793,18.793,0,0,0,219.972,70.559ZM152.4,25.508h67.575V51.788H152.4ZM182.43,59.3h7.508V70.559H182.43ZM96.084,89.33a11.263,11.263,0,0,1,11.263-11.263H219.972A11.263,11.263,0,0,1,231.235,89.33V216.972H96.084Zm-56.313,48.8H73.559v48.8H39.771ZM28.508,194.447H88.575v22.525H28.508Zm202.726,52.559H28.508V224.48H231.235Z" transform="translate(0 0)" fill="#414141"/>
    <path id="Path_6" data-name="Path 6" d="M50.754,82.508H65.771a3.754,3.754,0,1,0,0-7.508H50.754a3.754,3.754,0,0,0,0,7.508Z" transform="translate(71.609 156.989)" fill="#414141"/>
    <path id="Path_7" data-name="Path 7" d="M43.017,52H31.754a3.754,3.754,0,0,0,0,7.508H43.017a3.754,3.754,0,0,0,0-7.508Z" transform="translate(19.279 93.642)" fill="#414141"/>
    <path id="Path_8" data-name="Path 8" d="M43.017,55H31.754a3.754,3.754,0,1,0,0,7.508H43.017a3.754,3.754,0,1,0,0-7.508Z" transform="translate(19.279 101.905)" fill="#414141"/>
    <path id="Path_9" data-name="Path 9" d="M43.017,58H31.754a3.754,3.754,0,1,0,0,7.508H43.017a3.754,3.754,0,1,0,0-7.508Z" transform="translate(19.279 110.168)" fill="#414141"/>
    <path id="Path_10" data-name="Path 10" d="M47.754,130.855H149.117a3.754,3.754,0,0,0,3.754-3.754V40.754A3.754,3.754,0,0,0,149.117,37H47.754A3.754,3.754,0,0,0,44,40.754V127.1A3.754,3.754,0,0,0,47.754,130.855Zm3.754-86.346h93.855v78.838H51.508Z" transform="translate(63.346 52.33)" fill="#414141"/>
    <path id="Path_11" data-name="Path 11" d="M47.754,73.508H85.3A3.754,3.754,0,1,0,85.3,66H47.754a3.754,3.754,0,1,0,0,7.508Z" transform="translate(63.346 132.201)" fill="#414141"/>
    <path id="Path_12" data-name="Path 12" d="M102.3,66H64.754a3.754,3.754,0,1,0,0,7.508H102.3a3.754,3.754,0,0,0,0-7.508Z" transform="translate(110.168 132.201)" fill="#414141"/>
    <path id="Path_13" data-name="Path 13" d="M71.754,37.017a3.754,3.754,0,0,0,2.654-1.1l7.509-7.509A3.754,3.754,0,1,0,76.607,23.1L69.1,30.608a3.754,3.754,0,0,0,2.654,6.408Z" transform="translate(129.447 11.017)" fill="#414141"/>
    <path id="Path_14" data-name="Path 14" d="M73.777,71.889V57.71a17.157,17.157,0,0,1,5.32,2.253A3.71,3.71,0,0,0,83.084,53.7a23.493,23.493,0,0,0-9.307-3.274V44.754a3.754,3.754,0,1,0-7.508,0V50.9A13.275,13.275,0,0,0,56.245,62.32c-.6,7.82,4.13,11.443,10.024,14.3V91.46A19.382,19.382,0,0,1,61.1,88.265a3.687,3.687,0,0,0-6.089,3.041,3.634,3.634,0,0,0,1.306,2.534A25.07,25.07,0,0,0,66.269,99v2.069a3.754,3.754,0,1,0,7.508,0V99.288a13.891,13.891,0,0,0,12.28-11.867C86.7,79.06,80.636,75.032,73.777,71.889Zm-7.508-3.773A5.515,5.515,0,0,1,63.6,62.823a5.4,5.4,0,0,1,2-3.713,6.321,6.321,0,0,1,.668-.428ZM78.515,86.963a6.284,6.284,0,0,1-4.738,4.952v-11.7c3.694,2.132,4.944,4.058,4.738,6.743Z" transform="translate(93.636 63.346)" fill="#414141"/>
  </g>
</svg>
