<svg xmlns="http://www.w3.org/2000/svg" width="195.746" height="242.057" viewBox="0 0 195.746 242.057">
  <g id="noun_Checklist_911901" transform="translate(0 0)">
    <g id="Group_19" data-name="Group 19" transform="translate(0 0)">
      <path id="Path_1" data-name="Path 1" d="M118.354,219.042a7.922,7.922,0,0,0-7.919,7.919H95.127a9.788,9.788,0,0,0-9.793,9.793v9.828a9.758,9.758,0,0,0,9.793,9.757h71.235a9.739,9.739,0,0,0,9.757-9.757v-9.828a9.757,9.757,0,0,0-9.757-9.793H151.054a7.921,7.921,0,0,0-7.918-7.919H118.354ZM66.669,237.708a23.613,23.613,0,0,0-23.51,23.58V417.3a23.54,23.54,0,0,0,23.51,23.509h79.789a44.893,44.893,0,0,1-3.358-7.778H66.669A15.762,15.762,0,0,1,50.9,417.3V261.288a15.834,15.834,0,0,1,15.767-15.8H77.592v-7.778Zm117.193,0v7.778H194.75a15.8,15.8,0,0,1,15.732,15.8v103.83a45.444,45.444,0,0,1,7.778,3.358V261.288a23.613,23.613,0,0,0-23.51-23.58H183.861ZM73.88,273.838a3.858,3.858,0,0,0-3.889,3.889v29.908a3.858,3.858,0,0,0,3.889,3.889h29.908a3.858,3.858,0,0,0,3.889-3.889V277.727a3.858,3.858,0,0,0-3.889-3.889Zm3.853,7.777H99.9v22.166H77.734Zm49.069,20.54v7.778h58.19v-7.778ZM73.88,322.094a3.9,3.9,0,0,0-3.889,3.889v29.908a3.858,3.858,0,0,0,3.889,3.889h29.908a3.858,3.858,0,0,0,3.889-3.889V325.983a3.892,3.892,0,0,0-3.889-3.889Zm3.853,7.742H99.9v22.2H77.734ZM126.8,350.411v7.742h58.19v-7.742Zm66.568,19.62A45.534,45.534,0,1,0,238.9,415.566,45.565,45.565,0,0,0,193.371,370.032Zm-119.49.283a3.915,3.915,0,0,0-3.889,3.889v29.943A3.839,3.839,0,0,0,73.88,408h29.908a3.84,3.84,0,0,0,3.889-3.853V374.2a3.9,3.9,0,0,0-3.889-3.889H73.88Zm119.49,7.495a37.774,37.774,0,1,1-37.756,37.756A37.81,37.81,0,0,1,193.371,377.809Zm-115.637.283H99.9v22.166H77.734Zm136.778,20.292a3.929,3.929,0,0,0-2.758,1.131l-23.863,23.863-12.869-12.833a3.874,3.874,0,0,0-5.479,5.48l15.59,15.59a3.772,3.772,0,0,0,2.722,1.131,4.006,4.006,0,0,0,2.758-1.1L217.234,405a3.871,3.871,0,0,0-2.722-6.611Zm-87.674.247v7.742h14.106a43.229,43.229,0,0,1,1.944-7.742h-16.05Z" transform="translate(-43.159 -219.042)" fill="#414141"/>
    </g>
  </g>
</svg>
